<svg id="Layer_1" data-name="Layer 1" xmlns="http://www.w3.org/2000/svg" viewBox="0 0 651.69 129.06"><title>Capital-Pathology</title><rect x="165.01" y="13.91" width="0.99" height="104.65" style="fill:#004b8d"/><path d="M232.57,22.68c-3-1.79-9.92-4-16.81-4-15.89,0-25.26,8.22-25.26,19.09,0,11.73,11.21,19.62,25.26,19.62A37,37,0,0,0,232,53.9l3.49,3.85A49.4,49.4,0,0,1,215.3,62c-23,0-34.6-11.3-34.6-24.09C180.7,26.19,193.34,14,216.4,14c9.18,0,15.62,2.3,19.84,4.67l-3.67,4" style="fill:#004b8d"/><path d="M278.5,42.94a184,184,0,0,0,10.2-21.2h.18a226.06,226.06,0,0,0,9.56,21.2H278.5m8.18-28.09-26.2,46.27h8.64L276,47.55h24.54l6.62,13.57h10.29l-24-46.27Z" style="fill:#004b8d"/><path d="M355.46,61.12h-8.95V14.85H362.7c13.56,0,21.93,4.34,21.93,13.35,0,7.82-9.28,14.85-23.67,14.85h-2.84V38.88l2.93-.07c8.61-.33,14-3.64,14-10.54,0-5.1-3.94-8.81-13.47-8.81h-6.14V61.12" style="fill:#004b8d"/><polyline points="417.62 61.12 417.62 14.85 426.57 14.85 426.57 61.12 417.62 61.12" style="fill:#004b8d"/><polyline points="477.09 61.12 477.09 19.46 456.51 19.46 456.51 14.85 506.7 14.85 506.7 19.46 486.04 19.46 486.04 61.12 477.09 61.12" style="fill:#004b8d"/><path d="M546.6,42.94a183.38,183.38,0,0,0,10.2-21.2H557a227.81,227.81,0,0,0,9.56,21.2H546.6m8.18-28.09-26.2,46.27h8.64l6.89-13.57h24.54l6.62,13.57h10.29l-24-46.27Z" style="fill:#004b8d"/><polyline points="614.61 14.85 623.55 14.85 623.55 56.52 650.29 56.52 650.29 61.12 614.61 61.12 614.61 14.85" style="fill:#004b8d"/><path d="M187.19,118.25h-5.9V86.15H192c9.07,0,14.62,3,14.62,9.27,0,5.44-6.17,10.32-15.79,10.32H189v-2.9l2,0c5.76-.23,9.38-2.53,9.38-7.33,0-3.55-2.64-6.13-9-6.13h-4.11v28.91" style="fill:#e31837"/><path d="M233.72,105.62a129.62,129.62,0,0,0,6.76-14.7h.12c2.13,5.79,4.21,10.25,6.34,14.7H233.72m5.42-19.47-17.36,32.1h5.72l4.57-9.44h16.26l4.38,9.44h6.82l-15.9-32.1Z" style="fill:#e31837"/><polyline points="286.01 118.25 286.01 89.33 272.37 89.33 272.37 86.15 305.62 86.15 305.62 89.33 291.91 89.33 291.91 118.25 286.01 118.25" style="fill:#e31837"/><polyline points="358.94 118.25 353.04 118.25 353.04 102.31 332.15 102.31 332.15 118.25 326.25 118.25 326.25 86.15 332.15 86.15 332.15 99.13 353.04 99.13 353.04 86.15 358.94 86.15 358.94 118.25" style="fill:#e31837"/><path d="M406,115.66c-11,0-14.81-7.7-14.81-14,0-6,4.27-12.91,14.81-12.91s14.82,6.87,14.82,12.91c0,6.31-3.78,14-14.82,14m0,3.18c13.17,0,21.31-7.56,21.31-17.19,0-9-9-16.09-21.31-16.09s-21.3,7.06-21.3,16.09C384.67,111.27,392.8,118.84,406,118.84Z" style="fill:#e31837"/><polyline points="449.29 86.15 455.19 86.15 455.19 115.06 472.91 115.06 472.91 118.25 449.29 118.25 449.29 86.15" style="fill:#e31837"/><path d="M516.65,115.66c-11,0-14.81-7.7-14.81-14,0-6,4.27-12.91,14.81-12.91s14.82,6.87,14.82,12.91c0,6.31-3.78,14-14.82,14m0,3.18c13.16,0,21.31-7.56,21.31-17.19,0-9-9-16.09-21.31-16.09s-21.31,7.06-21.31,16.09C495.34,111.27,503.48,118.84,516.65,118.84Z" style="fill:#e31837"/><path d="M596.7,103.58V116.7A58.27,58.27,0,0,1,582,118.84c-15.15,0-22.93-7.89-22.93-16.73,0-8.15,8.38-16.55,23.72-16.55,6.21,0,11.08,1.5,13.64,3.1L594,91.32a24.45,24.45,0,0,0-11.14-2.58c-11.08,0-17.28,5.72-17.28,13.28,0,8.15,7.36,13.64,16.61,13.64a24.67,24.67,0,0,0,8.64-1.15V103.58h5.9" style="fill:#e31837"/><polyline points="631.41 118.25 631.41 104.35 618.56 86.59 624.95 85.68 635.24 100.91 646.44 85.68 651.68 86.22 637.31 104.35 637.31 118.25 631.41 118.25" style="fill:#e31837"/><circle cx="59.57" cy="64.51" r="59.56" transform="translate(-1.12 1.05) rotate(-1)" style="fill:#fff"/><path d="M75.92,7.23l-2.1.62c-5.52,1.62-24.23,7.22-33.2,11.21a10.25,10.25,0,0,0-2.88,1.82,2.91,2.91,0,0,0-1,1.7l0,.51h0a3,3,0,0,0,1,1.66,10.09,10.09,0,0,0,2.79,1.77c8.4,3.74,25.11,8.83,31.91,10.85L77,39.19l-3,1.23c-3.73,1.51-8.85,3.33-15.21,5.4l-.4.13-2.51-.79C35.7,38.54,34.55,36.48,34.06,35.6c-2.47-4.41-2.51-12.11-2.51-12.43l0-.68c0-.35,0-7.09,2.06-11.58a59.57,59.57,0,0,0,9.64,110.87l2-.57c5.51-1.61,24.18-7.2,33.2-11.21a10.21,10.21,0,0,0,2.88-1.81,3,3,0,0,0,1-1.7l0-.51a3,3,0,0,0-1-1.66,10.09,10.09,0,0,0-2.79-1.77C70.41,99,55,94.22,46.53,91.7L42,89.87l3-1.23c3.78-1.53,8.9-3.35,15.21-5.39l.4-.13,2.5.79c20.15,6.62,21.3,8.68,21.79,9.55,2.47,4.4,2.51,12.11,2.51,12.43l0,.67c0,.36,0,7.14-2.07,11.62a59.57,59.57,0,0,0-9.48-111Zm9.88,57.13-.17,3.82c-.11.61-.54,1.78-2.8,3.82a21.77,21.77,0,0,1-7,3.83c-.25.07-24.56,7.05-35.19,11.79a10.09,10.09,0,0,0-2.88,1.81,2.94,2.94,0,0,0-1,1.71l0,.5a3,3,0,0,0,1,1.67,10.13,10.13,0,0,0,2.79,1.77c8.42,3.75,25.11,8.83,31.9,10.84L77,107.76,74,109c-3.73,1.51-8.84,3.33-15.21,5.4l-.4.13-2.51-.78c-20.14-6.63-21.29-8.69-21.78-9.56-2.47-4.42-2.51-12.11-2.51-12.43l0-.67c0-.38,0-8.07,2.51-12.49,2.31-4.12,25.34-10.85,32.34-12.81,0,0,8.42-2.66,12-4.64A18.93,18.93,0,0,0,83.54,57L86,54ZM85,50.5c-2.31,4.12-25.34,10.85-32.34,12.81,0,0-8.42,2.66-12,4.64A18.91,18.91,0,0,0,35.44,72l-2.42,3,.16-10.36.18-3.82c.11-.61.54-1.79,2.8-3.83a21.71,21.71,0,0,1,7-3.82c.25-.07,24.56-7.06,35.18-11.79a10.2,10.2,0,0,0,2.89-1.81,3,3,0,0,0,1-1.71l0-.51a3,3,0,0,0-1-1.66A10.16,10.16,0,0,0,78.44,34C70,30.25,53.33,25.16,46.53,23.14L42,21.32l3-1.23c3.72-1.51,8.84-3.33,15.21-5.4l.4-.13,2.5.79C83.29,22,84.44,24,84.93,24.9,87.4,29.31,87.44,37,87.44,37.34l0,.67C87.47,38.39,87.43,46.09,85,50.5Z" style="fill:#004b8d"/><path d="M86.12,37.34s0-7.63-2.34-11.79c-1.11-2-11.21-5.71-21-8.94l-2.1-.66c-5.32,1.73-10.86,3.64-15.12,5.37l1.38.56C54,24,70.52,29,78.88,32.74a11.64,11.64,0,0,1,3.24,2,4.15,4.15,0,0,1,1.42,2.58l0,.67a4.16,4.16,0,0,1-1.42,2.58,11.37,11.37,0,0,1-3.24,2C68.07,47.48,43.55,54.51,43.55,54.51A20.38,20.38,0,0,0,37,58c-2.17,2-2.36,2.9-2.36,2.9l-.18,3.78-.1,6.48A19.91,19.91,0,0,1,40,66.78C43.71,64.71,52.26,62,52.26,62S81.58,53.81,83.8,49.85c2.33-4.16,2.34-11.79,2.34-11.79Z" style="fill:#e31837;isolation:isolate"/><path d="M40.1,27.77a11.46,11.46,0,0,1-3.24-2,4.15,4.15,0,0,1-1.42-2.58l0-.67a4.16,4.16,0,0,1,1.42-2.58,11.61,11.61,0,0,1,3.24-2c9-4,27.33-9.5,33.37-11.27A59.72,59.72,0,0,0,36.13,9.75a3.3,3.3,0,0,0-.95.91c-2.33,4.16-2.34,11.79-2.34,11.79l0,.72s0,7.63,2.35,11.79c1.11,2,11.21,5.72,21,8.94l2.1.66c5.32-1.73,10.86-3.64,15.12-5.37l-1.38-.56C65,36.53,48.47,31.49,40.1,27.77Z" style="fill:#e31837;isolation:isolate"/><path d="M32.87,91.73s0,7.63,2.34,11.79c1.11,2,11.21,5.71,21,8.94l2.1.66c5.32-1.73,10.86-3.64,15.12-5.36l-1.38-.57c-7.1-2.1-23.61-7.13-32-10.86a11.45,11.45,0,0,1-3.24-2,4.15,4.15,0,0,1-1.42-2.58l0-.67a4.17,4.17,0,0,1,1.43-2.58,11.44,11.44,0,0,1,3.24-2c10.84-4.82,35.35-11.85,35.35-11.85A20.46,20.46,0,0,0,81.95,71c2.17-2,2.36-2.9,2.36-2.9l.17-3.78.1-6.48A20,20,0,0,1,79,62.28C75.27,64.35,66.72,67,66.72,67S37.4,75.25,35.18,79.22C32.86,83.38,32.84,91,32.84,91Z" style="fill:#e31837;isolation:isolate"/><path d="M78.88,101.3a11.53,11.53,0,0,1,3.24,2,4.17,4.17,0,0,1,1.42,2.58l0,.67a4.17,4.17,0,0,1-1.42,2.58,11.39,11.39,0,0,1-3.24,2c-9,4-27.33,9.51-33.37,11.27a59.87,59.87,0,0,0,37.31-3.17,3.31,3.31,0,0,0,.95-.91c2.33-4.16,2.35-11.79,2.35-11.79l0-.72s0-7.63-2.34-11.79c-1.11-2-11.22-5.71-21-8.94l-2.1-.66c-5.32,1.73-10.86,3.64-15.12,5.36l1.38.56C54,92.54,70.52,97.57,78.88,101.3Z" style="fill:#e31837;isolation:isolate"/></svg>